<svg width="76" height="58" viewBox="0 0 76 58" fill="none" xmlns="http://www.w3.org/2000/svg">
<path d="M0.192 13.608H3.912C4.328 13.608 4.664 13.712 4.92 13.92C5.176 14.128 5.368 14.392 5.496 14.712L15.216 38.976C15.44 39.52 15.64 40.112 15.816 40.752C16.008 41.392 16.192 42.056 16.368 42.744C16.512 42.056 16.664 41.392 16.824 40.752C17 40.112 17.2 39.52 17.424 38.976L27.096 14.712C27.208 14.44 27.4 14.192 27.672 13.968C27.944 13.728 28.28 13.608 28.68 13.608H32.424L18.408 48H14.208L0.192 13.608Z" fill="#5D3F83"/>
<path d="M44.6 13.608V17.52H33.488V48H28.832V17.52H17.672V13.608H44.6Z" fill="#5D3F83"/>
<path d="M40.844 35.64C41.372 35.64 41.864 35.7 42.32 35.82C42.784 35.932 43.204 36.1 43.58 36.324H46.88V37.116C46.88 37.38 46.712 37.548 46.376 37.62L44.996 37.812C45.268 38.332 45.404 38.912 45.404 39.552C45.404 40.144 45.288 40.684 45.056 41.172C44.832 41.652 44.516 42.064 44.108 42.408C43.708 42.752 43.228 43.016 42.668 43.2C42.116 43.384 41.508 43.476 40.844 43.476C40.276 43.476 39.74 43.408 39.236 43.272C38.98 43.432 38.784 43.604 38.648 43.788C38.52 43.972 38.456 44.152 38.456 44.328C38.456 44.616 38.572 44.836 38.804 44.988C39.036 45.132 39.344 45.236 39.728 45.3C40.112 45.364 40.548 45.404 41.036 45.42C41.524 45.436 42.02 45.464 42.524 45.504C43.036 45.536 43.536 45.596 44.024 45.684C44.512 45.772 44.948 45.916 45.332 46.116C45.716 46.316 46.024 46.592 46.256 46.944C46.488 47.296 46.604 47.752 46.604 48.312C46.604 48.832 46.472 49.336 46.208 49.824C45.952 50.312 45.58 50.744 45.092 51.12C44.604 51.504 44.008 51.808 43.304 52.032C42.6 52.264 41.804 52.38 40.916 52.38C40.028 52.38 39.248 52.292 38.576 52.116C37.912 51.94 37.36 51.704 36.92 51.408C36.48 51.112 36.148 50.768 35.924 50.376C35.708 49.992 35.6 49.588 35.6 49.164C35.6 48.564 35.788 48.056 36.164 47.64C36.548 47.216 37.072 46.88 37.736 46.632C37.392 46.472 37.116 46.26 36.908 45.996C36.708 45.724 36.608 45.364 36.608 44.916C36.608 44.74 36.64 44.56 36.704 44.376C36.768 44.184 36.864 43.996 36.992 43.812C37.128 43.628 37.292 43.452 37.484 43.284C37.676 43.116 37.9 42.968 38.156 42.84C37.556 42.504 37.084 42.06 36.74 41.508C36.404 40.948 36.236 40.296 36.236 39.552C36.236 38.96 36.348 38.424 36.572 37.944C36.804 37.456 37.124 37.044 37.532 36.708C37.94 36.364 38.424 36.1 38.984 35.916C39.552 35.732 40.172 35.64 40.844 35.64ZM44.636 48.66C44.636 48.356 44.552 48.112 44.384 47.928C44.216 47.744 43.988 47.604 43.7 47.508C43.412 47.404 43.08 47.328 42.704 47.28C42.328 47.232 41.932 47.2 41.516 47.184C41.1 47.16 40.676 47.136 40.244 47.112C39.812 47.088 39.4 47.044 39.008 46.98C38.552 47.196 38.18 47.46 37.892 47.772C37.612 48.084 37.472 48.456 37.472 48.888C37.472 49.16 37.54 49.412 37.676 49.644C37.82 49.884 38.036 50.088 38.324 50.256C38.612 50.432 38.972 50.568 39.404 50.664C39.844 50.768 40.36 50.82 40.952 50.82C41.528 50.82 42.044 50.768 42.5 50.664C42.956 50.56 43.34 50.412 43.652 50.22C43.972 50.028 44.216 49.8 44.384 49.536C44.552 49.272 44.636 48.98 44.636 48.66ZM40.844 42.06C41.276 42.06 41.656 42 41.984 41.88C42.32 41.76 42.6 41.592 42.824 41.376C43.048 41.16 43.216 40.904 43.328 40.608C43.44 40.304 43.496 39.972 43.496 39.612C43.496 38.868 43.268 38.276 42.812 37.836C42.364 37.396 41.708 37.176 40.844 37.176C39.988 37.176 39.332 37.396 38.876 37.836C38.428 38.276 38.204 38.868 38.204 39.612C38.204 39.972 38.26 40.304 38.372 40.608C38.492 40.904 38.664 41.16 38.888 41.376C39.112 41.592 39.388 41.76 39.716 41.88C40.044 42 40.42 42.06 40.844 42.06ZM53.8218 35.652C54.5498 35.652 55.2218 35.776 55.8378 36.024C56.4538 36.264 56.9858 36.616 57.4338 37.08C57.8818 37.536 58.2298 38.104 58.4778 38.784C58.7338 39.456 58.8618 40.224 58.8618 41.088C58.8618 41.424 58.8258 41.648 58.7538 41.76C58.6818 41.872 58.5458 41.928 58.3458 41.928H50.2578C50.2738 42.696 50.3778 43.364 50.5698 43.932C50.7618 44.5 51.0258 44.976 51.3618 45.36C51.6978 45.736 52.0978 46.02 52.5618 46.212C53.0258 46.396 53.5458 46.488 54.1218 46.488C54.6578 46.488 55.1178 46.428 55.5018 46.308C55.8938 46.18 56.2298 46.044 56.5098 45.9C56.7898 45.756 57.0218 45.624 57.2058 45.504C57.3978 45.376 57.5618 45.312 57.6978 45.312C57.8738 45.312 58.0098 45.38 58.1058 45.516L58.7058 46.296C58.4418 46.616 58.1258 46.896 57.7578 47.136C57.3898 47.368 56.9938 47.56 56.5698 47.712C56.1538 47.864 55.7218 47.976 55.2738 48.048C54.8258 48.128 54.3818 48.168 53.9418 48.168C53.1018 48.168 52.3258 48.028 51.6138 47.748C50.9098 47.46 50.2978 47.044 49.7778 46.5C49.2658 45.948 48.8658 45.268 48.5778 44.46C48.2898 43.652 48.1458 42.724 48.1458 41.676C48.1458 40.828 48.2738 40.036 48.5298 39.3C48.7938 38.564 49.1698 37.928 49.6578 37.392C50.1458 36.848 50.7418 36.424 51.4458 36.12C52.1498 35.808 52.9418 35.652 53.8218 35.652ZM53.8698 37.224C52.8378 37.224 52.0258 37.524 51.4338 38.124C50.8418 38.716 50.4738 39.54 50.3298 40.596H56.9418C56.9418 40.1 56.8738 39.648 56.7378 39.24C56.6018 38.824 56.4018 38.468 56.1378 38.172C55.8738 37.868 55.5498 37.636 55.1658 37.476C54.7898 37.308 54.3578 37.224 53.8698 37.224ZM65.2798 48.192C64.3198 48.192 63.5798 47.924 63.0598 47.388C62.5478 46.852 62.2918 46.08 62.2918 45.072V37.632H60.8278C60.6998 37.632 60.5918 37.596 60.5038 37.524C60.4158 37.444 60.3718 37.324 60.3718 37.164V36.312L62.3638 36.06L62.8558 32.304C62.8718 32.184 62.9238 32.088 63.0117 32.016C63.0998 31.936 63.2118 31.896 63.3478 31.896H64.4278V36.084H67.9078V37.632H64.4278V44.928C64.4278 45.44 64.5518 45.82 64.7998 46.068C65.0478 46.316 65.3678 46.44 65.7598 46.44C65.9838 46.44 66.1758 46.412 66.3358 46.356C66.5038 46.292 66.6478 46.224 66.7678 46.152C66.8878 46.08 66.9878 46.016 67.0678 45.96C67.1558 45.896 67.2318 45.864 67.2958 45.864C67.4078 45.864 67.5078 45.932 67.5958 46.068L68.2198 47.088C67.8518 47.432 67.4078 47.704 66.8878 47.904C66.3678 48.096 65.8318 48.192 65.2798 48.192Z" fill="white"/>
</svg>
